<svg width="1960" height="570" viewBox="-50 -5 1960 570" fill="none" xmlns="http://www.w3.org/2000/svg">
<rect x="-50" y="-5" width="1960" height="570" fill="#F5F5F5"/>
<!-- "Inkwell." text — scaled 1.3x from left edge, centered vertically around y≈277 -->
<g transform="translate(0,-83) scale(1.3)">
<path d="M248.047 135.266C251.172 135.266 253.906 136.633 256.25 139.367C258.594 142.102 259.766 145.487 259.766 149.523C259.766 154.992 257.552 161.112 253.125 167.883C248.828 174.523 242.578 181.49 234.375 188.781C232.943 196.073 231.706 204.406 230.664 213.781C229.622 223.026 229.102 233.573 229.102 245.422C229.102 263.651 228.516 281.424 227.344 298.742C226.172 316.06 223.958 332.336 220.703 347.57C217.448 362.805 212.826 376.802 206.836 389.562C200.977 402.323 193.229 413.326 183.594 422.57C174.089 431.685 162.5 438.781 148.828 443.859C135.156 449.068 118.945 451.672 100.195 451.672C84.5703 451.672 70.638 449.849 58.3984 446.203C46.1589 442.557 35.7422 437.544 27.1484 431.164C18.6849 424.654 12.1745 417.102 7.61719 408.508C3.1901 399.784 0.976562 390.344 0.976562 380.188C0.976562 370.031 3.125 360.656 7.42188 352.062C11.7188 343.339 17.513 335.786 24.8047 329.406C32.0964 322.896 40.5599 317.818 50.1953 314.172C59.9609 310.526 70.3125 308.703 81.25 308.703C82.9427 308.703 84.6354 308.768 86.3281 308.898C88.151 308.898 89.7786 309.159 91.2109 309.68C92.6432 310.07 93.8151 310.852 94.7266 312.023C95.7682 313.065 96.2891 314.562 96.2891 316.516C96.2891 318.599 95.5078 320.357 93.9453 321.789C92.513 323.091 90.8203 323.742 88.8672 323.742C87.5651 323.742 86.263 323.742 84.9609 323.742C83.7891 323.612 82.5521 323.547 81.25 323.547C72.3958 323.547 63.9974 324.979 56.0547 327.844C48.112 330.708 41.1458 334.68 35.1562 339.758C29.1667 344.836 24.4141 350.826 20.8984 357.727C17.3828 364.628 15.625 372.115 15.625 380.188C15.625 387.349 16.9271 393.729 19.5312 399.328C22.1354 404.927 25.651 409.875 30.0781 414.172C34.5052 418.339 39.5833 421.919 45.3125 424.914C51.1719 427.909 57.2917 430.318 63.6719 432.141C70.0521 433.964 76.4974 435.331 83.0078 436.242C89.6484 437.023 95.9635 437.414 101.953 437.414C118.49 437.414 132.747 435.07 144.727 430.383C156.706 425.695 166.797 419.12 175 410.656C183.333 402.193 190.039 392.102 195.117 380.383C200.195 368.534 204.167 355.513 207.031 341.32C209.896 326.997 211.784 311.763 212.695 295.617C213.737 279.341 214.323 262.544 214.453 245.227C214.583 236.893 214.909 228.755 215.43 220.812C215.951 212.74 216.667 205.448 217.578 198.938C212.37 201.672 206.641 204.341 200.391 206.945C194.141 209.549 187.826 212.284 181.445 215.148C175.195 217.883 169.076 220.878 163.086 224.133C157.096 227.258 151.758 230.773 147.07 234.68C142.513 238.456 138.802 242.753 135.938 247.57C133.203 252.258 131.836 257.531 131.836 263.391C131.836 268.729 132.747 273.417 134.57 277.453C136.393 281.359 138.672 284.68 141.406 287.414C144.141 290.148 147.135 292.427 150.391 294.25C153.646 295.943 156.641 297.31 159.375 298.352C162.24 299.263 164.648 299.979 166.602 300.5C168.685 300.891 169.857 301.086 170.117 301.086C172.331 301.737 173.828 302.648 174.609 303.82C175.391 304.862 175.781 306.164 175.781 307.727C175.781 309.94 175.13 311.763 173.828 313.195C172.526 314.497 170.898 315.148 168.945 315.148C168.685 315.148 168.099 315.148 167.188 315.148C166.406 315.018 165.885 314.888 165.625 314.758C161.328 313.846 156.38 312.284 150.781 310.07C145.182 307.727 139.844 304.536 134.766 300.5C129.818 296.333 125.586 291.125 122.07 284.875C118.685 278.625 116.992 271.008 116.992 262.023C116.992 254.081 118.945 247.049 122.852 240.93C126.758 234.81 131.836 229.341 138.086 224.523C144.466 219.706 151.497 215.409 159.18 211.633C166.992 207.857 174.74 204.341 182.422 201.086C190.104 197.701 197.331 194.445 204.102 191.32C210.872 188.195 216.406 184.81 220.703 181.164C224.349 165.409 228.581 153.82 233.398 146.398C238.216 138.977 243.099 135.266 248.047 135.266ZM292.969 420.422C295.052 416.125 297.461 411.438 300.195 406.359C302.93 401.151 305.859 395.943 308.984 390.734C312.109 385.396 315.365 380.122 318.75 374.914C322.266 369.706 325.911 364.758 329.688 360.07C333.464 355.513 337.24 352.258 341.016 350.305C344.922 348.221 348.568 347.18 351.953 347.18C358.724 347.18 363.737 349.654 366.992 354.602C370.247 359.549 371.875 365.669 371.875 372.961C371.875 374.654 371.745 376.737 371.484 379.211C371.354 381.555 371.159 384.094 370.898 386.828C370.768 389.562 370.573 392.362 370.312 395.227C370.182 397.961 370.117 400.565 370.117 403.039C370.117 406.164 370.247 409.159 370.508 412.023C370.898 414.888 371.549 417.427 372.461 419.641C373.372 421.724 374.674 423.417 376.367 424.719C378.06 425.891 380.273 426.477 383.008 426.477C387.956 426.477 392.773 424.589 397.461 420.812C402.148 416.906 406.445 412.349 410.352 407.141C414.388 401.802 417.839 396.398 420.703 390.93C423.698 385.461 425.911 381.034 427.344 377.648C427.995 376.216 428.906 375.109 430.078 374.328C431.38 373.547 432.747 373.156 434.18 373.156C436.393 373.156 438.151 374.003 439.453 375.695C440.885 377.258 441.602 378.951 441.602 380.773C441.602 381.685 441.406 382.596 441.016 383.508C440.495 384.549 439.453 386.698 437.891 389.953C436.328 393.208 434.245 396.984 431.641 401.281C429.167 405.448 426.237 409.94 422.852 414.758C419.466 419.445 415.69 423.742 411.523 427.648C407.487 431.555 403.06 434.81 398.242 437.414C393.555 440.018 388.607 441.32 383.398 441.32C377.539 441.32 372.786 440.214 369.141 438C365.495 435.656 362.63 432.661 360.547 429.016C358.464 425.24 357.031 421.138 356.25 416.711C355.599 412.154 355.273 407.596 355.273 403.039C355.273 401.086 355.339 398.872 355.469 396.398C355.729 393.924 355.99 391.32 356.25 388.586C356.641 385.852 356.901 383.117 357.031 380.383C357.292 377.648 357.422 375.044 357.422 372.57C357.422 368.404 356.771 365.604 355.469 364.172C354.167 362.609 352.995 361.828 351.953 361.828C349.87 361.828 347.461 363.065 344.727 365.539C342.122 367.883 339.323 371.008 336.328 374.914C333.464 378.82 330.469 383.247 327.344 388.195C324.349 393.013 321.484 397.831 318.75 402.648C316.146 407.466 313.672 412.089 311.328 416.516C309.115 420.812 307.357 424.393 306.055 427.258C303.451 432.727 300.846 436.372 298.242 438.195C295.638 440.148 292.969 441.125 290.234 441.125C286.458 441.125 283.398 440.018 281.055 437.805C278.841 435.461 277.734 432.206 277.734 428.039C277.734 427.128 277.865 425.37 278.125 422.766C278.385 420.031 278.711 416.841 279.102 413.195C279.492 409.419 279.883 405.383 280.273 401.086C280.664 396.789 281.055 392.557 281.445 388.391C281.836 384.094 282.161 380.122 282.422 376.477C282.682 372.831 282.812 369.771 282.812 367.297C282.812 364.042 282.682 360.917 282.422 357.922C282.161 354.927 281.641 353.104 280.859 352.453C279.688 352.844 277.604 355.318 274.609 359.875C271.615 364.302 267.773 372.18 263.086 383.508C262.435 384.94 261.458 386.047 260.156 386.828C258.854 387.609 257.487 388 256.055 388C253.841 388 252.083 387.284 250.781 385.852C249.479 384.289 248.828 382.531 248.828 380.578C248.828 379.667 249.023 378.69 249.414 377.648C255.273 363.716 260.742 353.495 265.82 346.984C271.029 340.344 276.172 337.023 281.25 337.023C284.245 337.023 286.784 337.805 288.867 339.367C290.951 340.799 292.578 342.753 293.75 345.227C295.052 347.701 295.964 350.435 296.484 353.43C297.135 356.424 297.461 359.484 297.461 362.609C297.461 364.953 297.266 368.599 296.875 373.547C296.615 378.495 296.224 383.833 295.703 389.562C295.182 395.161 294.661 400.76 294.141 406.359C293.75 411.958 293.359 416.646 292.969 420.422ZM476.953 413.977C479.167 418.924 482.812 422.896 487.891 425.891C492.969 428.755 498.698 430.188 505.078 430.188C507.031 430.188 510.221 429.927 514.648 429.406C519.076 428.755 524.154 426.802 529.883 423.547C535.742 420.161 541.927 414.888 548.438 407.727C554.948 400.565 561.263 390.474 567.383 377.453C568.034 376.021 568.945 374.979 570.117 374.328C571.289 373.547 572.591 373.156 574.023 373.156C576.237 373.156 577.995 373.938 579.297 375.5C580.729 377.062 581.445 378.755 581.445 380.578C581.445 381.359 581.185 382.401 580.664 383.703C576.107 393.208 571.029 401.737 565.43 409.289C559.831 416.711 553.776 423.091 547.266 428.43C540.755 433.638 533.919 437.609 526.758 440.344C519.727 443.208 512.5 444.641 505.078 444.641C499.219 444.641 493.685 443.729 488.477 441.906C483.398 440.083 478.971 437.674 475.195 434.68C471.549 431.555 468.62 428.104 466.406 424.328C464.323 420.422 463.281 416.451 463.281 412.414C463.281 411.893 463.346 411.177 463.477 410.266C463.607 409.354 463.932 408.378 464.453 407.336C465.104 406.164 465.951 405.122 466.992 404.211C468.164 403.169 469.727 402.323 471.68 401.672C477.018 400.109 481.901 398.221 486.328 396.008C490.885 393.664 494.792 391.06 498.047 388.195C501.302 385.331 503.841 382.206 505.664 378.82C507.487 375.305 508.398 371.529 508.398 367.492C508.398 363.977 507.227 361.112 504.883 358.898C502.539 356.685 499.674 355.578 496.289 355.578C492.773 355.578 489.323 356.815 485.938 359.289C482.552 361.633 479.232 364.823 475.977 368.859C472.852 372.766 469.857 377.323 466.992 382.531C464.128 387.609 461.458 392.948 458.984 398.547C456.641 404.146 454.557 409.745 452.734 415.344C450.911 420.812 449.414 425.891 448.242 430.578C447.852 432.01 447.396 433.573 446.875 435.266C446.484 436.958 445.833 438.521 444.922 439.953C444.01 441.516 442.904 442.753 441.602 443.664C440.299 444.706 438.607 445.227 436.523 445.227C434.57 445.227 432.682 444.38 430.859 442.688C429.036 441.125 428.125 438.391 428.125 434.484C428.125 433.703 428.125 430.708 428.125 425.5C428.255 420.292 428.385 413.521 428.516 405.188C428.646 396.724 428.776 387.089 428.906 376.281C429.167 365.344 429.362 353.82 429.492 341.711C429.622 329.471 429.818 316.906 430.078 304.016C430.339 291.125 430.534 278.56 430.664 266.32C430.794 254.081 430.924 242.492 431.055 231.555C431.315 220.487 431.51 210.721 431.641 202.258C431.771 193.664 431.836 186.698 431.836 181.359C431.966 175.891 432.031 172.635 432.031 171.594C432.031 169.51 432.812 167.818 434.375 166.516C435.938 165.083 437.63 164.367 439.453 164.367C441.536 164.367 443.294 165.083 444.727 166.516C446.159 167.818 446.875 169.576 446.875 171.789C446.875 172.049 446.81 174.654 446.68 179.602C446.68 184.419 446.615 190.93 446.484 199.133C446.354 207.336 446.159 216.906 445.898 227.844C445.768 238.781 445.573 250.435 445.312 262.805C445.182 275.044 444.987 287.674 444.727 300.695C444.596 313.716 444.401 326.411 444.141 338.781C444.01 351.151 443.88 362.935 443.75 374.133C443.62 385.331 443.49 395.227 443.359 403.82C445.443 397.18 448.112 390.214 451.367 382.922C454.622 375.5 458.464 368.664 462.891 362.414C467.318 356.164 472.266 351.021 477.734 346.984C483.333 342.948 489.518 340.93 496.289 340.93C500.065 340.93 503.581 341.646 506.836 343.078C510.091 344.38 512.891 346.268 515.234 348.742C517.708 351.086 519.596 353.885 520.898 357.141C522.331 360.396 523.047 363.911 523.047 367.688C523.047 373.547 521.745 378.951 519.141 383.898C516.536 388.716 513.086 393.078 508.789 396.984C504.492 400.76 499.544 404.081 493.945 406.945C488.477 409.81 482.812 412.154 476.953 413.977ZM704.492 383.703C704.102 390.474 703.19 397.31 701.758 404.211C700.326 410.982 698.047 417.102 694.922 422.57C691.927 428.039 687.956 432.531 683.008 436.047C678.06 439.432 671.94 441.125 664.648 441.125C660.091 441.125 656.055 440.409 652.539 438.977C649.154 437.674 646.159 435.917 643.555 433.703C641.081 431.359 638.997 428.755 637.305 425.891C635.612 422.896 634.18 419.771 633.008 416.516C628.451 424.068 623.047 429.927 616.797 434.094C610.677 438.13 604.557 440.148 598.438 440.148C593.49 440.148 588.997 439.237 584.961 437.414C581.055 435.591 577.669 433.052 574.805 429.797C572.07 426.411 569.922 422.375 568.359 417.688C566.797 413 566.016 407.727 566.016 401.867C566.016 392.102 566.862 383.703 568.555 376.672C570.378 369.51 572.331 363.651 574.414 359.094C576.628 354.536 578.646 351.151 580.469 348.938C582.292 346.594 583.203 345.422 583.203 345.422C583.854 344.641 584.635 344.055 585.547 343.664C586.589 343.273 587.63 343.078 588.672 343.078C590.755 343.078 592.448 343.859 593.75 345.422C595.182 346.854 595.898 348.547 595.898 350.5C595.898 351.932 595.378 353.495 594.336 355.188C593.815 355.969 592.773 357.466 591.211 359.68C589.779 361.893 588.281 364.888 586.719 368.664C585.156 372.44 583.724 377.062 582.422 382.531C581.25 388 580.664 394.445 580.664 401.867C580.664 409.549 582.227 415.409 585.352 419.445C588.477 423.352 592.839 425.305 598.438 425.305C601.172 425.305 604.167 424.589 607.422 423.156C610.677 421.594 613.737 419.25 616.602 416.125C619.466 413 621.94 409.029 624.023 404.211C626.107 399.393 627.409 393.729 627.93 387.219L630.469 353.625C630.599 351.672 631.38 350.044 632.812 348.742C634.375 347.44 636.133 346.789 638.086 346.789C640.299 346.789 642.057 347.635 643.359 349.328C644.661 350.891 645.312 352.714 645.312 354.797L643.164 387.023C642.773 393.924 642.969 399.849 643.75 404.797C644.661 409.745 646.094 413.846 648.047 417.102C650 420.227 652.409 422.57 655.273 424.133C658.138 425.565 661.328 426.281 664.844 426.281C669.531 426.281 673.503 424.914 676.758 422.18C680.013 419.445 682.617 415.734 684.57 411.047C686.523 406.359 687.891 400.956 688.672 394.836C689.583 388.586 690.039 382.01 690.039 375.109C690.039 366.906 689.583 360.07 688.672 354.602C687.76 349.133 687.305 345.487 687.305 343.664C687.305 341.711 688.021 340.018 689.453 338.586C690.885 337.023 692.643 336.242 694.727 336.242C696.549 336.242 698.112 336.828 699.414 338C700.716 339.042 701.562 340.474 701.953 342.297C702.083 342.818 702.474 344.315 703.125 346.789C703.776 349.263 704.688 352.258 705.859 355.773C707.031 359.159 708.529 362.805 710.352 366.711C712.305 370.487 714.583 374.003 717.188 377.258C719.922 380.513 722.982 383.247 726.367 385.461C729.883 387.544 733.854 388.586 738.281 388.586C740.755 388.586 742.839 388.13 744.531 387.219C746.354 386.177 747.852 385.005 749.023 383.703C750.195 382.401 751.042 381.164 751.562 379.992C752.214 378.82 752.604 378.104 752.734 377.844C753.385 376.411 754.297 375.305 755.469 374.523C756.771 373.612 758.138 373.156 759.57 373.156C761.784 373.156 763.542 374.003 764.844 375.695C766.276 377.258 766.992 378.951 766.992 380.773C766.992 382.336 766.276 384.419 764.844 387.023C763.542 389.628 761.654 392.167 759.18 394.641C756.706 396.984 753.646 399.068 750 400.891C746.484 402.583 742.578 403.43 738.281 403.43C734.505 403.43 730.99 402.909 727.734 401.867C724.479 400.695 721.419 399.198 718.555 397.375C715.82 395.552 713.281 393.469 710.938 391.125C708.594 388.781 706.445 386.307 704.492 383.703ZM776.562 416.516C779.297 420.292 782.812 423.352 787.109 425.695C791.406 427.909 796.68 429.016 802.93 429.016C809.31 429.016 815.104 427.518 820.312 424.523C825.521 421.398 830.273 417.362 834.57 412.414C838.867 407.466 842.708 401.932 846.094 395.812C849.479 389.693 852.539 383.573 855.273 377.453C855.924 376.021 856.836 374.979 858.008 374.328C859.18 373.547 860.482 373.156 861.914 373.156C864.128 373.156 865.885 373.938 867.188 375.5C868.62 377.062 869.336 378.755 869.336 380.578C869.336 381.229 869.271 381.815 869.141 382.336C869.01 382.727 868.815 383.182 868.555 383.703C859.57 403.495 849.74 418.404 839.062 428.43C828.516 438.456 816.536 443.599 803.125 443.859C794.531 443.859 787.109 442.167 780.859 438.781C774.609 435.526 769.466 431.294 765.43 426.086C761.393 420.747 758.398 414.758 756.445 408.117C754.492 401.477 753.516 394.836 753.516 388.195C753.516 381.555 754.297 375.435 755.859 369.836C757.552 364.237 759.896 359.354 762.891 355.188C766.016 351.021 769.661 347.766 773.828 345.422C778.125 343.078 782.812 341.906 787.891 341.906C790.885 341.906 793.815 342.557 796.68 343.859C799.674 345.031 802.344 346.789 804.688 349.133C807.031 351.346 808.919 354.081 810.352 357.336C811.784 360.591 812.5 364.302 812.5 368.469C812.5 373.807 811.589 378.82 809.766 383.508C807.943 388.195 805.404 392.557 802.148 396.594C799.023 400.63 795.247 404.341 790.82 407.727C786.393 411.112 781.641 414.042 776.562 416.516ZM770.703 403.82C774.74 402.128 778.385 399.979 781.641 397.375C785.026 394.771 787.891 391.906 790.234 388.781C792.578 385.656 794.401 382.401 795.703 379.016C797.005 375.5 797.656 371.984 797.656 368.469C797.656 364.562 796.68 361.633 794.727 359.68C792.773 357.596 790.495 356.555 787.891 356.555C784.375 356.555 781.38 357.531 778.906 359.484C776.432 361.438 774.414 363.977 772.852 367.102C771.289 370.227 770.117 373.742 769.336 377.648C768.685 381.424 768.359 385.201 768.359 388.977C768.359 391.32 768.555 393.794 768.945 396.398C769.466 399.003 770.052 401.477 770.703 403.82ZM966.602 383.898C965.169 386.893 963.346 390.474 961.133 394.641C959.049 398.677 956.641 402.909 953.906 407.336C951.172 411.763 948.112 416.19 944.727 420.617C941.341 424.914 937.63 428.82 933.594 432.336C929.688 435.721 925.456 438.456 920.898 440.539C916.471 442.753 911.719 443.859 906.641 443.859C898.828 443.859 892.122 441.451 886.523 436.633C880.924 431.815 876.172 425.5 872.266 417.688C868.359 409.875 865.169 401.021 862.695 391.125C860.352 381.099 858.529 370.943 857.227 360.656C855.924 350.24 855.013 340.148 854.492 330.383C854.102 320.617 853.906 311.958 853.906 304.406C853.906 293.469 854.232 282.141 854.883 270.422C855.664 258.703 856.836 247.245 858.398 236.047C859.961 224.849 861.914 214.237 864.258 204.211C866.732 194.185 869.596 185.396 872.852 177.844C876.237 170.292 880.078 164.302 884.375 159.875C888.672 155.448 893.555 153.234 899.023 153.234C903.32 153.234 907.161 154.276 910.547 156.359C914.062 158.312 916.992 161.568 919.336 166.125C921.68 170.682 923.503 176.607 924.805 183.898C926.107 191.19 926.758 200.109 926.758 210.656C926.758 223.677 925.391 237.154 922.656 251.086C919.922 264.888 916.211 278.82 911.523 292.883C906.836 306.945 901.302 321.008 894.922 335.07C888.542 349.003 881.706 362.609 874.414 375.891C877.669 392.427 882.031 405.448 887.5 414.953C892.969 424.328 899.544 429.016 907.227 429.016C912.435 429.016 917.448 426.997 922.266 422.961C927.083 418.794 931.51 413.911 935.547 408.312C939.583 402.714 943.099 397.049 946.094 391.32C949.219 385.461 951.628 380.773 953.32 377.258C953.971 375.956 954.883 374.979 956.055 374.328C957.227 373.547 958.529 373.156 959.961 373.156C962.174 373.156 963.932 373.938 965.234 375.5C966.667 377.062 967.383 378.82 967.383 380.773C967.383 381.555 967.122 382.596 966.602 383.898ZM868.75 305.383C868.75 313.716 868.945 321.724 869.336 329.406C869.727 337.089 870.247 344.445 870.898 351.477C876.367 340.93 881.576 329.732 886.523 317.883C891.471 305.904 895.833 293.859 899.609 281.75C903.385 269.51 906.38 257.401 908.594 245.422C910.938 233.312 912.109 221.789 912.109 210.852C912.109 195.487 910.872 184.484 908.398 177.844C905.924 171.203 902.604 167.883 898.438 167.883C895.703 167.883 893.034 169.771 890.43 173.547C887.956 177.323 885.612 182.466 883.398 188.977C881.185 195.487 879.167 203.169 877.344 212.023C875.521 220.878 873.958 230.383 872.656 240.539C871.484 250.695 870.508 261.307 869.727 272.375C869.076 283.443 868.75 294.445 868.75 305.383ZM1064.65 383.898C1063.22 386.893 1061.39 390.474 1059.18 394.641C1057.1 398.677 1054.69 402.909 1051.95 407.336C1049.22 411.763 1046.16 416.19 1042.77 420.617C1039.39 424.914 1035.68 428.82 1031.64 432.336C1027.73 435.721 1023.5 438.456 1018.95 440.539C1014.52 442.753 1009.77 443.859 1004.69 443.859C996.875 443.859 990.169 441.451 984.57 436.633C978.971 431.815 974.219 425.5 970.312 417.688C966.406 409.875 963.216 401.021 960.742 391.125C958.398 381.099 956.576 370.943 955.273 360.656C953.971 350.24 953.06 340.148 952.539 330.383C952.148 320.617 951.953 311.958 951.953 304.406C951.953 293.469 952.279 282.141 952.93 270.422C953.711 258.703 954.883 247.245 956.445 236.047C958.008 224.849 959.961 214.237 962.305 204.211C964.779 194.185 967.643 185.396 970.898 177.844C974.284 170.292 978.125 164.302 982.422 159.875C986.719 155.448 991.602 153.234 997.07 153.234C1001.37 153.234 1005.21 154.276 1008.59 156.359C1012.11 158.312 1015.04 161.568 1017.38 166.125C1019.73 170.682 1021.55 176.607 1022.85 183.898C1024.15 191.19 1024.8 200.109 1024.8 210.656C1024.8 223.677 1023.44 237.154 1020.7 251.086C1017.97 264.888 1014.26 278.82 1009.57 292.883C1004.88 306.945 999.349 321.008 992.969 335.07C986.589 349.003 979.753 362.609 972.461 375.891C975.716 392.427 980.078 405.448 985.547 414.953C991.016 424.328 997.591 429.016 1005.27 429.016C1010.48 429.016 1015.49 426.997 1020.31 422.961C1025.13 418.794 1029.56 413.911 1033.59 408.312C1037.63 402.714 1041.15 397.049 1044.14 391.32C1047.27 385.461 1049.67 380.773 1051.37 377.258C1052.02 375.956 1052.93 374.979 1054.1 374.328C1055.27 373.547 1056.58 373.156 1058.01 373.156C1060.22 373.156 1061.98 373.938 1063.28 375.5C1064.71 377.062 1065.43 378.82 1065.43 380.773C1065.43 381.555 1065.17 382.596 1064.65 383.898ZM966.797 305.383C966.797 313.716 966.992 321.724 967.383 329.406C967.773 337.089 968.294 344.445 968.945 351.477C974.414 340.93 979.622 329.732 984.57 317.883C989.518 305.904 993.88 293.859 997.656 281.75C1001.43 269.51 1004.43 257.401 1006.64 245.422C1008.98 233.312 1010.16 221.789 1010.16 210.852C1010.16 195.487 1008.92 184.484 1006.45 177.844C1003.97 171.203 1000.65 167.883 996.484 167.883C993.75 167.883 991.081 169.771 988.477 173.547C986.003 177.323 983.659 182.466 981.445 188.977C979.232 195.487 977.214 203.169 975.391 212.023C973.568 220.878 972.005 230.383 970.703 240.539C969.531 250.695 968.555 261.307 967.773 272.375C967.122 283.443 966.797 294.445 966.797 305.383ZM1090.62 432.336C1090.62 435.331 1089.58 437.805 1087.5 439.758C1085.55 441.841 1083.07 442.883 1080.08 442.883C1077.08 442.883 1074.54 441.841 1072.46 439.758C1070.51 437.805 1069.53 435.331 1069.53 432.336C1069.53 429.471 1070.51 427.062 1072.46 425.109C1074.54 423.026 1077.08 421.984 1080.08 421.984C1083.07 421.984 1085.55 423.026 1087.5 425.109C1089.58 427.062 1090.62 429.471 1090.62 432.336Z" fill="#1A2744"/>
</g>
<!-- Pen nib — shifted right to clear larger text, down to center vertically -->
<g transform="translate(350,65)">
<g clip-path="url(#clip0_0_1)">
<path d="M1381.98 42.001C1392.85 48.4527 1403.18 56.8657 1419.35 72.001C1435.29 86.9164 1445.47 101.702 1451 111.004C1434.57 125.64 1400.8 158.604 1374.38 203.331C1342.24 257.731 1327.03 288.034 1320.42 302.294C1319.76 302.287 1319.1 302.287 1318.44 302.287C1270.57 302.287 1222.63 317.511 1185.51 333.483L1288.48 230.52C1291.82 231.46 1295.27 231.956 1298.74 231.956C1308.74 231.956 1318.14 228.064 1325.22 220.996C1332.33 213.892 1336.25 204.433 1336.25 194.38C1336.25 184.324 1332.33 174.869 1325.23 167.772C1318.13 160.664 1308.68 156.749 1298.63 156.749C1288.57 156.749 1279.13 160.66 1272.03 167.753C1262.21 177.541 1258.91 191.749 1262.5 204.52L1159.5 307.503C1175.7 269.873 1191.13 221.106 1190.68 172.56C1204.94 165.959 1235.24 150.756 1289.63 118.626C1334.37 92.2151 1367.33 58.4464 1381.98 41.9997M1378.29 22.6834C1378.29 22.6834 1340.27 70.9401 1281.85 105.437C1201.74 152.75 1175.02 162.68 1175.02 162.68C1180.9 261.32 1110.62 367.667 1110.62 367.667C1110.62 367.667 1108.26 366.991 1105.25 366.991C1101.14 366.991 1095.82 368.244 1093.6 374.175C1091.45 379.935 1095.5 386.323 1098.57 390.09L1280.92 207.76C1274.28 199.017 1274.86 186.559 1282.84 178.6C1287.2 174.248 1292.91 172.067 1298.62 172.067C1304.33 172.067 1310.04 174.243 1314.39 178.6C1323.11 187.308 1323.11 201.448 1314.39 210.156C1310.05 214.48 1304.4 216.636 1298.74 216.636C1293.99 216.636 1289.23 215.117 1285.24 212.1L1102.89 394.433C1105.93 396.901 1110.66 399.985 1115.39 399.985C1116.54 399.985 1117.69 399.806 1118.82 399.389C1129.12 395.545 1125.34 382.36 1125.34 382.36C1125.34 382.36 1223.33 317.607 1318.43 317.607C1322.4 317.607 1326.35 317.719 1330.3 317.951C1330.3 317.951 1340.23 291.227 1387.56 211.127C1422.05 152.731 1470.3 114.694 1470.3 114.694C1470.3 114.694 1458.91 88.0493 1429.82 60.814C1408.11 40.4963 1395.77 31.1123 1378.29 22.684L1378.29 22.6834Z" fill="#1A2744"/>
</g>
<path d="M1485.33 107.321C1482.37 107.321 1479.54 105.585 1478.28 102.689C1478.18 102.437 1467.03 77.054 1439.61 51.3793C1417.81 30.9757 1406.21 22.3753 1389.98 14.5627C1386.17 12.7306 1384.57 8.15133 1386.4 4.33866C1388.25 0.52233 1392.83 -1.07267 1396.63 0.75933C1414.47 9.344 1426.97 18.555 1450.09 40.1893C1479.99 68.197 1491.88 95.4927 1492.36 96.6427C1494.04 100.531 1492.23 105.023 1488.35 106.691C1487.36 107.122 1486.34 107.322 1485.33 107.322L1485.33 107.321Z" fill="#1A2744"/>
</g>
<defs>
<clipPath id="clip0_0_1">
<rect width="400" height="400" fill="white" transform="translate(1093)"/>
</clipPath>
</defs>
</svg>
